<?xml version="1.0" encoding="utf-8"?>
<!-- Generator: Adobe Illustrator 23.0.1, SVG Export Plug-In . SVG Version: 6.00 Build 0)  -->
<svg version="1.1" id="Слой_1" xmlns="http://www.w3.org/2000/svg" xmlns:xlink="http://www.w3.org/1999/xlink" x="0px" y="0px"
	 viewBox="0 0 158.9 43" style="enable-background:new 0 0 158.9 43;" xml:space="preserve">
<style type="text/css">
	.st0{fill:#FFCE10;}
	.st1{fill:#404040;}
	.st2{fill:#FFFFFF;}
</style>
<g>
	<path class="st0" d="M43.8,32.8V10.2c0-5.6-4.7-10.1-10.4-10.2h-23C4.7,0,0,4.6,0,10.2v22.6C0,38.4,4.7,42.9,10.4,43h23.1
		C39.2,42.9,43.8,38.4,43.8,32.8z"/>
	<path class="st1" d="M15.7,18.9c0-1.5,0-2.8-0.1-4h3.1l0.2,2l0,0c0.9-1.5,2.6-2.3,4.4-2.3c2.4,0,4.9,1.5,4.9,5.8v8h-3.4v-7.6
		c0-1.9-0.7-3.4-2.6-3.4c-1.2,0-2.3,0.8-2.7,2c-0.1,0.3-0.1,0.7-0.2,1.1v7.9h-3.5L15.7,18.9L15.7,18.9z"/>
	<path class="st1" d="M9.4,14.6c0,0.8-0.7,1.5-1.6,1.5s-1.6-0.7-1.6-1.5s0.7-1.5,1.6-1.5c0.4,0,0.8,0.1,1.1,0.4
		C9.2,13.8,9.4,14.2,9.4,14.6z"/>
	<path class="st1" d="M21.8,38.2c-9.4,0-17.1-7.4-17.1-16.6c0-1.3,0.2-2.7,0.5-4l2.3,0.5c-0.3,1.1-0.4,2.3-0.4,3.4
		c0,6.5,4.6,12.2,11.1,13.9c6.5,1.6,13.3-1.2,16.6-6.9l2,1.1C33.7,35,28,38.3,21.8,38.2z"/>
	<path class="st2" d="M39.1,22.2l-2.3-0.1v-0.5c0.1-6-3.6-11.4-9.3-13.6s-12.2-0.7-16.3,3.7l-1.8-1.6c3.2-3.5,7.8-5.5,12.6-5.5
		c9.6,0.1,17.2,7.7,17.1,17C39.1,21.6,39.1,22.2,39.1,22.2z"/>
	<path class="st2" d="M35.9,25.9c0-0.8,0.7-1.5,1.6-1.5s1.6,0.7,1.6,1.5s-0.7,1.5-1.6,1.5C36.6,27.4,35.9,26.7,35.9,25.9z"/>
</g>
<g>
	<path class="st1" d="M57,21.3c0-2.4,0-4.4-0.1-6.2h4.8l0.3,3h0.1c0.9-1.7,3.3-3.5,6.8-3.5c3.8,0,7.5,2.3,7.5,8.7v12.2H71V24
		c0-3-1.2-5.1-4.1-5.1c-2.1,0-3.6,1.5-4.2,3c-0.1,0.5-0.1,1.1-0.1,1.7v12h-5.4L57,21.3"/>
	<path class="st1" d="M111.4,9.9c0,1.5-1.1,2.7-2.9,2.7c-1.7,0-2.7-1.2-2.7-2.7s1.2-2.7,2.9-2.7S111.4,8.4,111.4,9.9"/>
	<path class="st1" d="M158.9,9.9c0,1.5-1.1,2.7-2.9,2.7c-1.7,0-2.7-1.2-2.7-2.7s1.2-2.7,2.7-2.7C157.9,7.2,158.9,8.4,158.9,9.9"/>
	<path class="st1" d="M116.8,21.2c0-2.4,0-4.4-0.2-6.2h4.7l0.1,3h0.2c1.1-1.7,3-3.5,6.6-3.5c2.9,0,5,1.5,5.9,3.8h0.1
		c0.8-1.2,1.7-2,2.7-2.6c1.2-0.8,2.6-1.2,4.4-1.2c3.6,0,7.2,2.3,7.2,8.9v12h-5.3V24.2c0-3.5-1.2-5.4-3.8-5.4c-1.8,0-3.2,1.2-3.8,2.7
		c-0.1,0.5-0.3,1.2-0.3,1.7v12.3h-5.3V23.6c0-2.9-1.2-4.8-3.8-4.8c-2,0-3.3,1.5-3.9,3c-0.1,0.5-0.3,1.1-0.3,1.7v12.2h-5.3V21.2"/>
	<path class="st1" d="M154,15h4.7v20.4H154V15z"/>
	<path class="st1" d="M106.4,15h4.7v20.4h-4.7V15z"/>
	<path id="Fill-12" class="st1" d="M96.2,15v1.7c-1.7-1.2-3.8-2-6-2c-5.7,0-10.4,4.7-10.4,10.5c0,5.7,4.7,10.5,10.4,10.5
		c2.3,0,4.4-0.8,6-2v1.7h5.1V15H96.2z M90.4,31.4c-3.3,0-5.9-2.7-5.9-6.2s2.7-6.2,5.9-6.2c3.3,0,5.9,2.7,5.9,6.2
		S93.5,31.4,90.4,31.4z"/>
</g>
</svg>
